# xmcd CD database file
# Copyright (C) 1993-1996 Ti Kan
#
# Track frame offsets:
#  150
#  14050
#  30091
#  46009
#  59520
#  76736
#  90300
#  102952
#  118852
#  132237
#  144878
#  160910
#  173427
#  184629
#  200832
#  214450
#  228663
#  247831
#  262304
#
# Disc length: 3775 seconds
#
# Revision: 1
# Processed by: cddbd v1.5.2PL0 Copyright (c) Steve Scherf et al.
# Submitted via: Advanced CD Ripper Pro 2.0
#
DISCID=fe0ebd13
DTITLE=Unknown Artist - Unknown Album
DYEAR=2003
DGENRE=
TTITLE0=USTED NO SABE QUE ES AMAR
TTITLE1=CANDILEJAS
TTITLE2=LA VERDAD SIEMPRE APARECE
TTITLE3=NO CONSIGO OLVIDARTE
TTITLE4=DESNUDO SIN TU AMOR
TTITLE5=CENICIENTA
TTITLE6=EL TIEMPO Y LA DISTANCIA
TTITLE7=NADA CAMBIO
TTITLE8=SI HUBIESE SABIDO
TTITLE9=YESTERDAY
TTITLE10=MI DESTINO ERES TU
TTITLE11=DESDE QUE DIJISTE ADIOS
TTITLE12=SOLO SE QUE NO SE MAS NADA
TTITLE13=ESTOY PERDIDO SIN TU AMOR
TTITLE14=MI DILEMA
TTITLE15=EL MEJOR DE MIS AMIGOS
TTITLE16=EL CARRUAJE
TTITLE17=MI CORAZON VA A VOLAR
TTITLE18=EL RELOJ
EXTD=
EXTT0=
EXTT1=
EXTT2=
EXTT3=
EXTT4=
EXTT5=
EXTT6=
EXTT7=
EXTT8=
EXTT9=
EXTT10=
EXTT11=
EXTT12=
EXTT13=
EXTT14=
EXTT15=
EXTT16=
EXTT17=
EXTT18=
PLAYORDER=
